<?xml version="1.0" encoding="UTF-8"?>
<svg width="14px" height="12px" viewBox="0 0 14 12" version="1.1" xmlns="http://www.w3.org/2000/svg" xmlns:xlink="http://www.w3.org/1999/xlink">
    <!-- Generator: Sketch 63.1 (92452) - https://sketch.com -->
    <title>heart</title>
    <desc>Created with Sketch.</desc>
    <g id="Page-1" stroke="none" stroke-width="1" fill="none" fill-rule="evenodd">
        <g id="Landing" transform="translate(-1277.000000, -975.000000)" fill="#ffc419" fill-rule="nonzero">
            <g id="heart" transform="translate(1277.000000, 975.000000)">
                <path d="M12.8893738,1.17435598 C12.1646576,0.417075423 11.1702423,0 10.0890961,0 C9.28096009,0 8.54086302,0.246149624 7.88931276,0.731554207 C7.56054688,0.976571866 7.26264954,1.2763352 7,1.62621343 C6.73745729,1.2764381 6.43945313,0.976571866 6.11058044,0.731554207 C5.45913698,0.246149624 4.71903991,0 3.91090394,0 C2.82975768,0 1.83523561,0.417075423 1.1105194,1.17435598 C0.394454949,1.92278667 0,2.94525434 0,4.0535451 C0,5.19425102 0.44123841,6.23843173 1.3885498,7.33972489 C2.23599245,8.32483791 3.45396423,9.32487223 4.86441041,10.4828663 C5.34602357,10.8783316 5.89193724,11.3265873 6.458786,11.8040682 C6.60853577,11.930436 6.80068971,12 7,12 C7.19920348,12 7.39146423,11.930436 7.54100036,11.804274 C8.10784912,11.3266902 8.65408327,10.8782287 9.13591003,10.4825575 C10.5461426,9.32476933 11.7641144,8.32483791 12.611557,7.33962199 C13.5588684,6.23843173 14,5.19425102 14,4.0534422 C14,2.94525434 13.6055451,1.92278667 12.8893738,1.17435598 Z" id="Path"></path>
            </g>
        </g>
    </g>
</svg>
