<svg width="180" height="180" viewBox="0 0 180 180" fill="none" xmlns="http://www.w3.org/2000/svg">
<rect x="25" y="77" width="34" height="106" rx="17" transform="rotate(-90 25 77)" fill="#7A7AC7"/>
<path d="M165 93.5C165 121.39 142.39 144 114.5 144C86.6096 144 64 121.39 64 93.5C64 65.6096 86.6096 43 114.5 43C142.39 43 165 65.6096 165 93.5ZM98.0467 93.5C98.0467 102.587 105.413 109.953 114.5 109.953C123.587 109.953 130.953 102.587 130.953 93.5C130.953 84.4131 123.587 77.0467 114.5 77.0467C105.413 77.0467 98.0467 84.4131 98.0467 93.5Z" fill="url(#paint0_angular_306_6297)"/>
<circle cx="115" cy="60" r="17" fill="#84CAF7"/>
<path d="M157.283 66.6693C163.07 75.8979 165.719 86.7506 164.833 97.6079C163.947 108.465 159.573 118.745 152.366 126.913C145.159 135.081 135.503 140.699 124.841 142.93C114.178 145.161 103.08 143.884 93.2029 139.29C83.3256 134.696 75.1987 127.031 70.0347 117.439C64.8708 107.848 62.9468 96.8435 64.5498 86.0687C66.1528 75.294 71.1968 65.3264 78.9293 57.6535C86.6617 49.9805 96.668 45.0136 107.455 43.4939L112.205 77.2076C108.69 77.7028 105.43 79.321 102.911 81.8209C100.392 84.3208 98.7481 87.5683 98.2258 91.0788C97.7036 94.5893 98.3304 98.1746 100.013 101.3C101.695 104.425 104.343 106.922 107.561 108.419C110.779 109.915 114.395 110.331 117.869 109.605C121.343 108.878 124.489 107.047 126.837 104.386C129.185 101.725 130.61 98.3757 130.899 94.8384C131.187 91.301 130.325 87.7651 128.439 84.7584L157.283 66.6693Z" fill="url(#paint1_angular_306_6297)"/>
<defs>
<radialGradient id="paint0_angular_306_6297" cx="0" cy="0" r="1" gradientUnits="userSpaceOnUse" gradientTransform="translate(114.5 93.5) rotate(-89.4327) scale(50.5025)">
<stop stop-color="#7A7AC7"/>
<stop offset="1" stop-color="#84CAF6"/>
</radialGradient>
<radialGradient id="paint1_angular_306_6297" cx="0" cy="0" r="1" gradientUnits="userSpaceOnUse" gradientTransform="translate(114.5 93.5) rotate(-89.4327) scale(50.5025)">
<stop stop-color="#7A7AC7"/>
<stop offset="1" stop-color="#84CAF6"/>
</radialGradient>
</defs>
</svg>
